<?xml version="1.0" encoding="UTF-8"?>
<svg width="28px" height="28px" viewBox="0 0 28 28" version="1.1" xmlns="http://www.w3.org/2000/svg" xmlns:xlink="http://www.w3.org/1999/xlink">
    <title>28X28_BirdEyeSymbol_SVG</title>
    <g id="28X28_BirdEyeSymbol_SVG" stroke="none" stroke-width="1" fill="none" fill-rule="evenodd">
        <path d="M15.2571248,1.39599015 C19.4783923,0.0396512502 24.0265995,2.27991532 25.4162866,6.3997307 C25.4372956,6.46252741 25.4499432,6.5261661 25.4693361,6.58903298 L25.4693361,6.58903298 L26.80766,6.94076475 C27.1642512,7.0359772 27.4923854,7.24022439 27.7181446,7.55911945 C28.2170913,8.26398627 28.0360202,9.22993307 27.3140547,9.71687074 C27.2084475,9.78808712 27.0961651,9.84063991 26.9814235,9.88407138 L26.9814235,9.88407138 L26.9822667,9.89824449 L25.687858,10.2732005 C25.3874782,11.8617119 24.5836548,13.3255419 23.3991395,14.4600225 C24.3387838,15.3263365 25.077683,16.4260859 25.5103002,17.7083317 C26.9000575,21.8281471 24.6043828,26.2673486 20.3834666,27.623477 C16.4736807,28.879692 12.4235067,26.8619879 10.5514553,23.5093449 L10.5514553,23.5093449 L6.26716076,17.4874556 C6.26146936,17.4800884 6.25444293,17.474335 6.24910284,17.4668976 L6.24910284,17.4668976 L6.2356121,17.4448661 L0.247268075,9.49571403 L0.257245603,9.48420715 C0.188597396,9.37587405 0.127959318,9.26066488 0.0851683675,9.13422948 C-0.206639211,8.26875742 0.275584582,7.3364893 1.16210908,7.05148343 C1.56324788,6.92266246 1.97562898,6.95500803 2.33713873,7.10221195 L2.33713873,7.10221195 L2.340933,7.09800211 L8.08061172,9.36899798 L10.4988274,5.51580553 C11.4074149,3.63148307 13.0703597,2.0984714 15.2571248,1.39599015 Z M11.606333,14.1964166 C10.772296,14.1964166 10.0961428,14.8716041 10.0961428,15.7044499 C10.0961428,16.0487443 10.2129923,16.3650433 10.4074838,16.6188964 L10.4065704,16.6198787 L10.4183748,16.6334203 C10.4529448,16.6774832 10.489412,16.7200026 10.5286194,16.7599259 L15.4325747,22.3860906 L15.4327153,22.3859503 C16.0441551,23.0746794 16.9363007,23.5093449 17.9304701,23.5093449 C19.7735726,23.5093449 21.2676723,22.017309 21.2676723,20.176839 C21.2676723,18.8780521 20.5233245,17.7534032 19.4376533,17.2035969 L19.2635241,17.1214104 L19.2587462,17.1194458 C19.1931193,17.0910294 19.1266493,17.0645075 19.0589848,17.0401606 L12.2190376,14.3256585 L12.2184755,14.3266408 C12.0312212,14.2434966 11.8244334,14.1964166 11.606333,14.1964166 Z M20.7160274,7.64521059 C20.2047845,6.1647517 18.5312297,5.35962062 16.9779674,5.8471196 C15.4249159,6.33440808 14.5803392,7.92965515 15.0915119,9.41018421 C15.6029656,10.8905028 17.2765907,11.6956338 18.8295719,11.2083454 C20.3829045,10.7207762 21.2274812,9.12559931 20.7160274,7.64521059 Z" id="BirdEyeSymbol" fill="#1976D2"></path>
    </g>
</svg>